<svg id="Layer_1" data-name="Layer 1" xmlns="http://www.w3.org/2000/svg" viewBox="0 0 665.48 176.01">
  <defs>
    <style>
      .cls-1, .cls-2, .cls-3 {
        fill: none;
        stroke: #627d8c;
        stroke-linecap: round;
        stroke-linejoin: round;
      }

      .cls-1 {
        stroke-width: 1.5px;
      }

      .cls-2 {
        stroke-width: 2px;
      }

      .cls-3 {
        stroke-width: 1.01px;
      }
    </style>
  </defs>
  <title>Untitled-1</title>
  <g id="wood-block">
    <g>
      <polygon class="cls-1" points="550.12 148.55 493.43 124.58 493.43 55.11 550.12 31.14 606.8 55.11 606.8 124.58 550.12 148.55"/>
      <polyline class="cls-1" points="493.43 54.92 550.12 78.89 606.8 54.92"/>
      <line class="cls-2" x1="548.43" y1="147.51" x2="548.43" y2="78.51"/>
    </g>
    <path class="cls-1" d="M606.3,100.46s-4.36-9.6-17.14-15.25a68.23,68.23,0,0,1-21-14.64s-40.84-24.4-55.68-24.4" transform="translate(0.51 0.51)"/>
    <path class="cls-1" d="M606.3,87.54s-3.06-4.85-14.08-9.15c-6.31-2.46-16-11.26-16-11.26-10.67-8.49-54.88-24.74-54.88-24.74" transform="translate(0.51 0.51)"/>
    <path class="cls-1" d="M606.3,80s-2.75-5.85-8-8a23.73,23.73,0,0,1-9.16-6.37,77,77,0,0,1,7.17-7" transform="translate(0.51 0.51)"/>
    <path class="cls-1" d="M606.3,68.57l-6.54-4.17a12.32,12.32,0,0,1,6.54-5.76" transform="translate(0.51 0.51)"/>
    <path class="cls-1" d="M606.3,113.37s-6.49-11.46-10-14.53c-5-4.31-12.65-7.8-12.65-7.8s6.28,15.61,11.35,20.72,11.35,12.13,11.35,12.13" transform="translate(0.51 0.51)"/>
    <path class="cls-1" d="M597.73,127.51a68,68,0,0,1-19.5-27.06c-5.11-12.92-9.15-18.57-12.38-22.07a14.4,14.4,0,0,0-6.16-4.26S514.43,53.29,503.32,50" transform="translate(0.51 0.51)"/>
    <path class="cls-1" d="M581.6,134.33c-7-4.57-16.49-12.08-21.91-16.38s-10.08-8.61-10.08-8.61c-16.86-10.85-56.69-22.42-56.69-22.42" transform="translate(0.51 0.51)"/>
    <path class="cls-1" d="M492.92,63.6c8.79,5.72,49.69,16.4,57,22.32a48,48,0,0,1,12.51,24.31c-7.61-4.5-9.1-6.25-12.78-11.51s-56.78-25.4-56.78-25.4" transform="translate(0.51 0.51)"/>
    <path class="cls-1" d="M574.07,137.41l-24.46-15.24c-14.71-2.33-56.69-23.68-56.69-23.68" transform="translate(0.51 0.51)"/>
    <path class="cls-1" d="M564.67,141.49s-7.43-6.59-14.7-8.74c0,0-44.13-13.08-57-25.29" transform="translate(0.51 0.51)"/>
    <path class="cls-1" d="M599.75,57.19C578.87,52,547.91,34.87,539.16,34.87" transform="translate(0.51 0.51)"/>
    <polyline class="cls-1" points="534.94 37.37 584.11 59.14 529.38 39.72"/>
    <path class="cls-1" d="M492.92,117.94s45,18.09,49.24,26.76" transform="translate(0.51 0.51)"/>
    <path class="cls-1" d="M589.16,131.14c-13.62-9.69-17.18-20.45-21-28.8S558.85,80,550,78.39" transform="translate(0.51 0.51)"/>
  </g>
  <g id="pirate-ship">
    <line class="cls-1" x1="27.93" y1="94.42" x2="72.52" y2="107.04"/>
    <polygon class="cls-2" points="73.95 106.51 78.84 106.51 80.43 107.31 80.43 110.71 75.29 110.98 72.79 108.47 73.95 106.51"/>
    <path class="cls-2" d="M81,110.88c5.29,3.8,17.15,9.71,56.79,9.71,36.25,0,66.16-20.7,66.16-20.7v4.62s-26.55,22.34-66.46,22.34S80.37,117,80.37,117H74.26l-3.12-6,2.72-1.63" transform="translate(0.51 0.51)"/>
    <path class="cls-1" d="M75.48,116.31s7.6,13.85,15.07,18.06,18.87,7.47,33,7.47,37.74-4.07,44.66-6,15.88-5.43,21.18-13a121.84,121.84,0,0,0,8.28-13.58" transform="translate(0.51 0.51)"/>
    <path class="cls-1" d="M203.57,99.75l4.31-30.82-3.07-.41S197.43,78.43,190,80.61s-10.77,1.76-10.77,1.76,0.14,13.44.14,16.29-2.17,7.6-8,9a68.65,68.65,0,0,1-9.91,1.63s0.54,8.28-7.47,10" transform="translate(0.51 0.51)"/>
    <polyline class="cls-1" points="179.84 97.13 162.73 98.9 163.01 109.76"/>
    <line class="cls-1" x1="167.35" y1="108.67" x2="167.21" y2="98.35"/>
    <line class="cls-1" x1="171.56" y1="98.22" x2="171.83" y2="108.13"/>
    <line class="cls-1" x1="175.5" y1="97.67" x2="175.63" y2="106.09"/>
    <polyline class="cls-1" points="123.33 120.38 122.92 110.91 161.82 109.08"/>
    <line class="cls-1" x1="127.57" y1="110.71" x2="127.98" y2="120.89"/>
    <line class="cls-1" x1="132.6" y1="110.55" x2="133.11" y2="120.79"/>
    <line class="cls-1" x1="137.59" y1="110.55" x2="138.09" y2="120.99"/>
    <line class="cls-1" x1="142.07" y1="109.99" x2="142.47" y2="121.09"/>
    <line class="cls-1" x1="147.36" y1="109.99" x2="147.56" y2="120.58"/>
    <line class="cls-1" x1="151.84" y1="109.59" x2="152.15" y2="120.07"/>
    <line class="cls-1" x1="156.73" y1="109.38" x2="156.83" y2="119.26"/>
    <path class="cls-1" d="M121.91,114.68s-39.37.27-39.37-6.11,25-7.2,25-7.2" transform="translate(0.51 0.51)"/>
    <path class="cls-1" d="M104.26,45.58S89.59,53.33,89.59,68c0,14.33,10.46,19.26,10.46,19.26l21,11.4S110,93,110,76.81s11.27-23.35,11.27-23.35-9.23.27-12.08-1.63S104.26,45.58,104.26,45.58Z" transform="translate(0.51 0.51)"/>
    <line class="cls-1" x1="109.23" y1="92.39" x2="107.07" y2="114.78"/>
    <polyline class="cls-1" points="115.96 53.54 117.66 29.25 115.36 28.85 113 53.29"/>
    <line class="cls-1" x1="113.47" y1="89.94" x2="115.5" y2="60.61"/>
    <line class="cls-1" x1="111.83" y1="114.92" x2="113.16" y2="95.37"/>
    <polyline class="cls-1" points="116.31 27.9 116.17 19.75 131.78 20.02 129.47 23.14 131.78 24.64 130.42 25.59 132.87 27.76 130.02 29.8 132.87 32.38 131.24 33.87 117.8 33.73"/>
    <polyline class="cls-1" points="113.05 98.69 141.76 96.86 141.86 88.31 156.01 87.7"/>
    <path class="cls-1" d="M112.64,106.84s16.75-1.43,22.2-1.93,6.21-7.33,6.21-7.33l21.59,10.08" transform="translate(0.51 0.51)"/>
    <line class="cls-1" x1="160.49" y1="114.88" x2="139.62" y2="103.58"/>
    <line class="cls-1" x1="137.18" y1="104.9" x2="136.97" y2="97.17"/>
    <line class="cls-1" x1="132.78" y1="105.21" x2="132.58" y2="97.98"/>
    <line class="cls-1" x1="128.38" y1="105.72" x2="128.18" y2="97.98"/>
    <line class="cls-1" x1="124.47" y1="105.72" x2="124.27" y2="98.79"/>
    <line class="cls-1" x1="120.24" y1="106.53" x2="120.03" y2="98.79"/>
    <line class="cls-1" x1="116" y1="106.53" x2="115.8" y2="98.79"/>
    <path class="cls-1" d="M145,41.24s-9.5,9.5-9.5,23.62,9.91,16,9.91,16l21.45,10.45a27.76,27.76,0,0,1-7.33-19.28c0-12.35,9.64-23.35,9.64-23.35s-11.54,1.49-16.56-1.22A24.49,24.49,0,0,1,145,41.24Z" transform="translate(0.51 0.51)"/>
    <line class="cls-1" x1="119.28" y1="55.9" x2="121.46" y2="57.22"/>
    <line class="cls-1" x1="106.03" y1="47.92" x2="115.65" y2="53.72"/>
    <line class="cls-1" x1="101.64" y1="45.27" x2="103.87" y2="46.61"/>
    <polyline class="cls-1" points="159.12 49.31 158.8 32.78 156.22 32.65 156.12 48.9"/>
    <path class="cls-1" d="M155.4,85.87l-0.1,16.6a5.42,5.42,0,0,0,2.31,1,4.21,4.21,0,0,0,2-.81l-0.29-14.8" transform="translate(0.51 0.51)"/>
    <line class="cls-1" x1="167.55" y1="51.92" x2="170.47" y2="52.98"/>
    <line class="cls-1" x1="149.2" y1="45.52" x2="160.77" y2="49.58"/>
    <line class="cls-1" x1="141.15" y1="42.69" x2="143.58" y2="43.54"/>
    <line class="cls-1" x1="141.76" y1="96.86" x2="155.61" y2="95.84"/>
    <line class="cls-1" x1="146.04" y1="88.15" x2="146.14" y2="96.45"/>
    <line class="cls-1" x1="150.11" y1="88.15" x2="150.21" y2="95.99"/>
    <line class="cls-1" x1="154.18" y1="88.15" x2="154.28" y2="95.99"/>
    <line class="cls-1" x1="180.45" y1="82.91" x2="160.39" y2="72.53"/>
    <path class="cls-2" d="M180.92,82V71.92s27.74-4.21,14.44-7.74-34.44-1.09-34.44-1.09V73" transform="translate(0.51 0.51)"/>
    <line class="cls-1" x1="162.6" y1="63.43" x2="182.69" y2="72.66"/>
    <line class="cls-1" x1="200.75" y1="66.59" x2="200.34" y2="74.19"/>
    <line class="cls-2" x1="165.43" y1="65.51" x2="165.43" y2="74.51"/>
    <line class="cls-2" x1="169.43" y1="63.51" x2="169.43" y2="77.51"/>
    <line class="cls-2" x1="173.43" y1="63.51" x2="173.43" y2="78.51"/>
    <line class="cls-2" x1="177.43" y1="71.51" x2="177.43" y2="81.51"/>
    <line class="cls-2" x1="186.43" y1="71.51" x2="186.43" y2="81.51"/>
    <line class="cls-2" x1="190.43" y1="70.51" x2="190.43" y2="80.51"/>
    <line class="cls-2" x1="194.43" y1="69.51" x2="194.43" y2="78.51"/>
    <line class="cls-1" x1="198.57" y1="69.17" x2="198.51" y2="76.36"/>
    <path class="cls-2" d="M176.92,63v7.29s7.06,0,9.3.56" transform="translate(0.51 0.51)"/>
    <line class="cls-2" x1="181.43" y1="63.51" x2="181.43" y2="70.51"/>
    <line class="cls-2" x1="185.43" y1="63.51" x2="185.43" y2="70.51"/>
    <line class="cls-2" x1="189.43" y1="63.51" x2="189.43" y2="70.51"/>
    <line class="cls-2" x1="193.43" y1="64.51" x2="193.43" y2="69.51"/>
    <line class="cls-2" x1="196.43" y1="65.51" x2="196.43" y2="69.51"/>
    <path class="cls-1" d="M167.22,22l-2,9.16s-1.93,1-7.33,1a14.79,14.79,0,0,1-8.55-2.44l-0.51-8.65" transform="translate(0.51 0.51)"/>
    <ellipse class="cls-1" cx="157.94" cy="21.38" rx="2.64" ry="9.27" transform="translate(127.82 178.29) rotate(-86.63)"/>
    <line class="cls-1" x1="152.55" y1="24.09" x2="152.76" y2="31.39"/>
    <line class="cls-1" x1="162.87" y1="24.64" x2="161.92" y2="32.31"/>
    <line class="cls-1" x1="157.64" y1="24.77" x2="157.44" y2="32.51"/>
  </g>
  <g id="legos">
    <path id="path2842" class="cls-1" d="M300.36,108.83v23.78L327,143.36l-0.05-23.7Z" transform="translate(0.51 0.51)"/>
    <path id="path2846" class="cls-1" d="M392.77,121.76V99.65l-65.86,20-0.09,23.84Z" transform="translate(0.51 0.51)"/>
    <path id="path2850" class="cls-1" d="M319.56,103l1-.31" transform="translate(0.51 0.51)"/>
    <path id="path2850-2" data-name="path2850" class="cls-1" d="M346.64,113.92l-19.73,5.74-26.57-10.89,7.77-2.33" transform="translate(0.51 0.51)"/>
    <path id="path2854" class="cls-1" d="M321.87,110.53v4.81c2.55,2.27,11.32,2.12,13.44-.28v-5" transform="translate(0.51 0.51)"/>
    <path id="path2858" class="cls-1" d="M321.87,110.18c0-.9,3-1.63,6.72-1.63s6.72,0.73,6.72,1.63-3,1.63-6.72,1.63S321.87,111.08,321.87,110.18Z" transform="translate(0.51 0.51)"/>
    <path id="path2938" class="cls-1" d="M308.22,104.52v4.81c2.55,2.26,11.32,2.12,13.44-.28v-5" transform="translate(0.51 0.51)"/>
    <path id="path2942" class="cls-1" d="M308.22,104.17c0-.9,3-1.63,6.72-1.63s6.72,0.73,6.72,1.63-3,1.63-6.72,1.63S308.22,105.07,308.22,104.17Z" transform="translate(0.51 0.51)"/>
    <path id="path2950" class="cls-1" d="M320.58,88.73" transform="translate(0.51 0.51)"/>
    <path id="path2950-2" data-name="path2950" class="cls-1" d="M332.67,84.79" transform="translate(0.51 0.51)"/>
    <path id="path2950-3" data-name="path2950" class="cls-1" d="M320.58,88.73v14l26.61,11v-23l-14.52-5.93" transform="translate(0.51 0.51)"/>
    <path id="path2954" class="cls-1" d="M413,93.54V71.42L347,90.72v23.14Z" transform="translate(0.51 0.51)"/>
    <path id="path2958" class="cls-1" d="M391.29,62.3l6.22,2.63" transform="translate(0.51 0.51)"/>
    <path id="path2958-2" data-name="path2958" class="cls-1" d="M376.48,63l1.42-.43" transform="translate(0.51 0.51)"/>
    <path id="path2958-3" data-name="path2958" class="cls-1" d="M404.44,67.87l8.41,3.56L347.19,90.72l-14.52-5.93" transform="translate(0.51 0.51)"/>
    <path id="path2962" class="cls-1" d="M342.1,81.47v4.81c2.55,2.26,11.32,2.12,13.44-.28V81" transform="translate(0.51 0.51)"/>
    <path id="path2974" class="cls-1" d="M358.86,76.59V81.4c2.55,2.27,11.32,2.12,13.44-.28v-5" transform="translate(0.51 0.51)"/>
    <path id="path2986" class="cls-1" d="M375.21,71.71v4.81c2.55,2.26,11.32,2.12,13.44-.28v-5" transform="translate(0.51 0.51)"/>
    <path id="path2998" class="cls-1" d="M391,67v4.81c2.55,2.26,11.32,2.12,13.44-.28v-5" transform="translate(0.51 0.51)"/>
    <path id="path3002" class="cls-1" d="M391,66.62c0-.9,3-1.63,6.72-1.63s6.72,0.73,6.72,1.63-3,1.63-6.72,1.63S391,67.51,391,66.62Z" transform="translate(0.51 0.51)"/>
    <path id="path3010" class="cls-1" d="M377.9,61.24V66c2.55,2.27,11.32,2.12,13.44-.28v-5" transform="translate(0.51 0.51)"/>
    <path id="path3014" class="cls-1" d="M377.9,60.88c0-.9,3-1.63,6.72-1.63s6.72,0.73,6.72,1.63-3,1.63-6.72,1.63S377.9,61.78,377.9,60.88Z" transform="translate(0.51 0.51)"/>
    <path id="path3058" class="cls-1" d="M284.06,57.42v23.5l26.61,10.76,0-23.49Z" transform="translate(0.51 0.51)"/>
    <path id="path3062" class="cls-1" d="M364.89,74.58l10.29-3.26" transform="translate(0.51 0.51)"/>
    <path id="path3062-2" data-name="path3062" class="cls-1" d="M349.39,79.5l9.5-3" transform="translate(0.51 0.51)"/>
    <path id="path3062-3" data-name="path3062" class="cls-1" d="M376.48,70.25V48.79L310.62,68.18l-0.09,23.64,31.54-10" transform="translate(0.51 0.51)"/>
    <path id="path3066" class="cls-1" d="M354.82,39.69L361,42.3" transform="translate(0.51 0.51)"/>
    <path id="path3066-2" data-name="path3066" class="cls-1" d="M335.6,41.73L341.33,40" transform="translate(0.51 0.51)"/>
    <path id="path3066-3" data-name="path3066" class="cls-1" d="M319.8,46.55L324.87,45" transform="translate(0.51 0.51)"/>
    <path id="path3066-4" data-name="path3066" class="cls-1" d="M303.68,51.45L308.35,50" transform="translate(0.51 0.51)"/>
    <path id="path3066-5" data-name="path3066" class="cls-1" d="M368,45.27l8.48,3.53L310.62,68.18,284.06,57.43l7.8-2.38" transform="translate(0.51 0.51)"/>
    <path id="path3070" class="cls-1" d="M305.58,58.84v4.81c2.55,2.26,11.32,2.12,13.44-.28v-5" transform="translate(0.51 0.51)"/>
    <path id="path3074" class="cls-1" d="M305.58,58.49c0-.9,3-1.63,6.72-1.63S319,57.59,319,58.49s-3,1.63-6.72,1.63S305.58,59.39,305.58,58.49Z" transform="translate(0.51 0.51)"/>
    <path id="path3082" class="cls-1" d="M322.35,54v4.81c2.55,2.27,11.32,2.12,13.44-.28v-5" transform="translate(0.51 0.51)"/>
    <path id="path3086" class="cls-1" d="M322.35,53.61c0-.9,3-1.63,6.72-1.63s6.72,0.73,6.72,1.63-3,1.63-6.72,1.63S322.35,54.51,322.35,53.61Z" transform="translate(0.51 0.51)"/>
    <path id="path3094" class="cls-1" d="M338.69,49.08v4.81c2.55,2.26,11.32,2.12,13.44-.28v-5" transform="translate(0.51 0.51)"/>
    <path id="path3098" class="cls-1" d="M338.69,48.73c0-.9,3-1.63,6.72-1.63s6.72,0.73,6.72,1.63-3,1.63-6.72,1.63S338.69,49.62,338.69,48.73Z" transform="translate(0.51 0.51)"/>
    <path id="path3106" class="cls-1" d="M354.47,44.34v4.81c2.55,2.26,11.32,2.12,13.44-.28v-5" transform="translate(0.51 0.51)"/>
    <path id="path3110" class="cls-1" d="M354.47,44c0-.9,3-1.63,6.72-1.63s6.72,0.73,6.72,1.63-3,1.63-6.72,1.63S354.47,44.88,354.47,44Z" transform="translate(0.51 0.51)"/>
    <path id="path3118" class="cls-1" d="M341.38,38.61v4.81c2.55,2.26,11.32,2.12,13.44-.28v-5" transform="translate(0.51 0.51)"/>
    <path id="path3122" class="cls-1" d="M341.38,38.25c0-.9,3-1.63,6.72-1.63s6.72,0.73,6.72,1.63-3,1.63-6.72,1.63S341.38,39.15,341.38,38.25Z" transform="translate(0.51 0.51)"/>
    <path id="path3130" class="cls-1" d="M324.89,43.35v4.81c2.55,2.26,11.32,2.12,13.44-.28v-5" transform="translate(0.51 0.51)"/>
    <path id="path3134" class="cls-1" d="M324.89,43c0-.9,3-1.63,6.72-1.63s6.72,0.73,6.72,1.63-3,1.63-6.72,1.63S324.89,43.9,324.89,43Z" transform="translate(0.51 0.51)"/>
    <path id="path3142" class="cls-1" d="M308.41,48.09V52.9c2.55,2.26,11.32,2.12,13.44-.28v-5" transform="translate(0.51 0.51)"/>
    <path id="path3146" class="cls-1" d="M308.41,47.74c0-.9,3-1.63,6.72-1.63s6.72,0.73,6.72,1.63-3,1.63-6.72,1.63S308.41,48.64,308.41,47.74Z" transform="translate(0.51 0.51)"/>
    <path id="path3154" class="cls-1" d="M291.92,52.83v4.81c2.55,2.26,11.32,2.12,13.44-.28v-5" transform="translate(0.51 0.51)"/>
    <path id="path3158" class="cls-1" d="M291.92,52.48c0-.9,3-1.63,6.72-1.63s6.72,0.73,6.72,1.63-3,1.63-6.72,1.63S291.92,53.38,291.92,52.48Z" transform="translate(0.51 0.51)"/>
    <path id="path2978" class="cls-1" d="M358.86,76.24c0-.9,3-1.63,6.72-1.63s6.72,0.73,6.72,1.63-3,1.63-6.72,1.63c-3.23,0-5.92-.55-6.57-1.28A0.52,0.52,0,0,1,358.86,76.24Z" transform="translate(0.51 0.51)"/>
    <path id="path2966" class="cls-1" d="M342.1,81.12c0-.9,3-1.63,6.72-1.63s6.72,0.73,6.72,1.63-3,1.63-6.72,1.63S342.1,82,342.1,81.12Z" transform="translate(0.51 0.51)"/>
    <path id="path2990" class="cls-1" d="M375.21,71.36c0-.9,3-1.63,6.72-1.63s6.72,0.73,6.72,1.63-3,1.63-6.72,1.63S375.21,72.25,375.21,71.36Z" transform="translate(0.51 0.51)"/>
  </g>
</svg>
