<svg version="1.1" id="nanopack-logo" xmlns="http://www.w3.org/2000/svg" xmlns:xlink="http://www.w3.org/1999/xlink" x="0px" y="0px"
	 viewBox="0 0 1634.5 1888.3" enable-background="new 0 0 1634.5 1888.3" xml:space="preserve">
	<polygon fill="#F2F2F2" points="817.6,1888.1 0,1416.1 0,472.1 817.6,0 1635.3,472 1635.2,1416.1 "/>	
	<polygon fill="#196C7B" points="1100.6,1174.6 934.4,1258.9 934.4,1342.1 1100.6,1257.8 		"/>
	<polygon fill="#155764" points="934.4,1342.1 701.4,1342.1 701.4,1259.9 934.4,1258.9 		"/>
	<polygon fill="#12414C" points="934.5,973.4 701.2,972.5 533.2,1056.8 533.2,1175.5 533.2,1175.8 533.2,1257.8 701.2,1342.1 
	854.7,1342.1 883.6,1288.5 934.2,1258.9 1100.2,1174.6 1100.2,1057.7 		"/>
	<path fill="#0D8462" d="M1330.2,1047.2v-70.3l-142.8-11.4c-9.1-18-22.8-35-41.4-50.6l85.7-59l-99-49.7l-117.9,42.8
	c-31.1-9.3-65-14.4-101.1-19l-22.8-70H750.4l-22.9,70c-36,4.5-70,10.7-101.1,20l-118-43.3l-99.4,49.4l85.7,58.9
	c-18.6,15.6-35.1,32.5-44.2,50.5l-146.3,11.4v71.1l146.3,10.5c9.1,18,24.5,35,43.1,50.6l-85.1,59l99.7,49.7l118.1-42.8
	c31.1,9.3,65.2,19,101.2,23.6l22.9,74.6H891l22.9-74.6c36-4.5,70-13,101.1-22.3l118,42.2l99.4-50l-85.7-59.2
	c18.6-15.6,31.7-32.6,40.8-50.6L1330.2,1047.2z M821.6,1097.5c-93.5,0-169.3-37.9-169.3-84.7s75.8-84.7,169.3-84.7
	s169.3,37.9,169.3,84.7S915.1,1097.5,821.6,1097.5z"/>
	<polygon fill="#0D8462" points="407.9,775.6 492.2,833.9 492.2,917.2 407,859.8 		"/>
	<polygon fill="#20C786" points="1231.2,776.2 1231.2,855.9 1145.2,918.7 1145.2,835.1 		"/>
	<polygon fill="#1AB17A" points="1187.2,978.9 1330.2,967.5 1330.2,1050.5 1186.9,1062.4 		"/>
	<polygon fill="#1AB17A" points="451.2,978.9 451.2,1062.6 304.2,1050.9 304.2,968.3 		"/>
	<path fill="#0D8462" d="M450.9,978.9c9.1,18,25.3,35,41.3,50.6v83.5c-16-15.6-32.8-32.3-41.8-50.3L450.9,978.9z"/>
	<path fill="#20C786" d="M1187.1,978.9c-9.1,18-25.8,35.1-41.8,50.6v83.4c16-15.6,32.4-32.6,41.5-50.6L1187.1,978.9z"/>
	<path fill="#26DD92" d="M1330.2,967.5v-70.3l-142.8-11.4c-9.1-18-22.8-35-41.4-50.6l85.7-59l-99-49.7l-117.9,42.8
	c-31.1-9.3-65-14.1-101.1-18.6L891,681.1H750.4l-22.9,69.6c-36,4.5-70,10.5-101.1,19.8l-118-43.4l-100.3,48.5l86.6,59.7
	c-18.6,15.6-35.1,32.5-44.2,50.5l-146.3,11.4v71.1l146.3,10.5c9.1,18,24.5,35,43.1,50.6l-85.1,59l99.7,49.7l118.1-42.8
	c31.1,9.3,65.2,18.9,101.2,23.4l22.9,74.4H891l22.9-74.4c36-4.5,70-12.9,101.1-22.2l118,42.2l99.4-50l-85.7-59.1
	c18.6-15.6,31.7-32.6,40.8-50.6L1330.2,967.5z M821.6,1017.8c-93.5,0-169.3-37.9-169.3-84.7c0-46.8,75.8-84.7,169.3-84.7
	s169.3,37.9,169.3,84.7C990.9,979.9,915.1,1017.8,821.6,1017.8z"/>
	<rect x="751.2" y="1191" fill="#1AB17A" width="140.5" height="82.2"/>
	<polygon fill="#0D8462" points="750.4,1273.1 728.2,1200.5 728.2,1116.8 751.3,1191 		"/>
	<polygon fill="#20C786" points="891.3,1191.7 912.2,1117.6 912.2,1201.9 891.2,1273.1 		"/>
	<polygon fill="#1AB17A" points="1014.2,1095.6 1014.2,1177.7 1132.2,1221.8 1132.2,1138 		"/>
	<polygon fill="#20C786" points="1231.2,1088.8 1231.2,1168.5 1132.2,1221.8 1132.2,1138 		"/>
	<polygon fill="#1AB17A" points="626.2,1095.6 626.2,1175 508.2,1217.8 508.2,1138 		"/>
	<polygon fill="#0D8462" points="409.2,1088.5 508.2,1138 508.2,1217.8 409.2,1168.2 		"/>
	<path fill="#0D8462" d="M729.1,1117.6c-36-4.5-67.8-13-102.8-22.3v79.7c35,14.4,48,21.9,102,25.4L729.1,1117.6z"/>
	<path fill="#20C786" d="M1015.7,1096c-31.1,9.3-64.5,17.1-103.5,21.6v82.8c37-4.3,71.9-9.5,102.3-21.3L1015.7,1096z"/>
	<path fill="#0D8462" d="M950.5,752.7l-264.9-1l-190.4,96.2v135.4l189.6,96.2l265.5-1l188.9-96.2V848.8L950.5,752.7z M819.8,987.7
	c-79.4,0-143.7-32.2-143.7-71.9c0-39.7,64.4-71.9,143.7-71.9s143.7,32.2,143.7,71.9C963.6,955.5,899.2,987.7,819.8,987.7z"/>
	<path fill="#12414C" d="M956.7,683.6L679,682.5L479.2,783.1v144l199.6,100.1h277.7L1154.2,927V784.2L956.7,683.6z M819.9,929.4
	c-83,0-150.3-33.7-150.3-75.2c0-41.5,67.3-75.2,150.3-75.2s150.3,33.7,150.3,75.2C970.3,895.7,903,929.4,819.9,929.4z"/>
	<path fill="#2B99A5" d="M956.9,587.1H679.3l-200,100.1v141.6l199.6,99.2h277.7l197.7-100.3V688.4L956.9,587.1z M819.9,833.6
	c-83,0-150.3-33.7-150.3-75.2c0-41.5,67.3-75.2,150.3-75.2s150.3,33.7,150.3,75.2C970.3,800,903,833.6,819.9,833.6z"/>
	<polygon fill="none" stroke="#196C7B" stroke-width="7" stroke-miterlimit="10" points="570.7,808.8 570.7,707.4 726.6,635.4 
	919.2,636.2 1054.7,708.2 1054.7,808 925.1,880 719.4,880.8 		"/>
	<polygon fill="#12414C" points="678.9,1027.6 479.6,927 479.9,828.9 678.9,928.4 		"/>
	<polygon fill="#196979" points="1154.6,827.8 956.6,928.4 956.6,1027.6 1154.6,927 		"/>
	<rect x="678.9" y="928.4" fill="#15515E" width="277.7" height="99.2"/>
	<path fill="#12414C" d="M819.9,707.2c83-13.4,150.3,9.4,150.3,50.9c0-41.5-67.3-75.2-150.3-75.2s-150.3,33.7-150.3,75.2
	c0,8.3,2.7,16.2,7.7,23.7C697.1,748.7,753.5,718,819.9,707.2z"/>
	<path fill="#15515E" d="M963.2,780.9c4.6-7.2,7-14.8,7-22.8c0-41.5-67.3-64.3-150.3-50.9c-66.5,10.7-122.8,41.4-142.7,74.5
	c4.9,7.4,12.1,14.3,21.1,20.5c27.3-23.2,71.6-42.6,121.6-50.6C887.1,740.8,943.9,753.6,963.2,780.9z"/>
	<path fill="#12414C" d="M925.7,800.7c4,1.3,7.8,2.8,11.4,4.5c11.5-7.1,20.5-15.4,26.2-24.3c-19.3-27.3-76.1-40.1-143.3-29.2
	c-50,8.1-94.3,27.4-121.6,50.6c1.9,1.3,3.9,2.6,6,3.8c27.6-16.6,69.1-27.1,115.6-27.1C861.2,779,898.5,787.3,925.7,800.7z"/>
	<path fill="#15515E" d="M935.5,806.1c0.5-0.3,1-0.6,1.5-0.9c-3.6-1.6-7.4-3.1-11.4-4.5C929.1,802.4,932.4,804.2,935.5,806.1z"/>
	<polygon fill="#2D2D2D" points="890.2,1403.7 836.2,1423.9 836.2,1343.1 890.7,1343.1 	"/>
	<path fill="#2D2D2D" d="M893.2,824.1V626.9l22.6-10.9c9-4,16.4-10.4,21.7-18.9c8.5-12.8,13.4-31,13.4-54.7
	c0-52.2-23.5-109.4-58-149.6l-52.8,25.5c0,0,0,0,0,0c0,0,0,0,0,0l-0.3,87.8l-51.6-60.1c0,0,0-104.5,0-104.5
	c0,0-11.8,2.9-16.5,5.2l-50.4,24.9c1.3-0.6,3.1-1.2,5-1.8c-28.3,10.5-46.8,42.2-46.8,88.6c0,23.4,4.8,46.1,13.1,67.2
	c9.2,24.3,25.6,48.5,44.6,68.9v226.7c24,7.7,51.8,12.1,82.1,12.1C846.2,833.7,871.2,830.2,893.2,824.1z M887.2,499.9
	C887.2,499.9,887.2,499.8,887.2,499.9C887.2,499.8,887.2,499.9,887.2,499.9z"/>
	<polygon fill="#676D6D" points="788.8,533.5 839.7,508.6 839.8,505.8 788.8,446.1 737.7,470.9 			"/>
	<polygon fill="#545858" points="788.3,533.5 839.2,522.1 839.2,522.1 839.2,508.6 			"/>
	<path fill="#545858" d="M839.2,645.6V833c19-1.3,38-4.4,54-8.9V626.9l22.6-10.9c9-4,16.4-10.4,21.7-18.9
	c8.5-12.8,13.4-31,13.4-54.7c0-52.2-23.5-109.4-58-149.6l-52.8,25.1l0.1,0.5c29.2,34.9,57.6,88.6,57.6,149.5
	c0,60.4-32.6,78.6-58.6,78.6V645.6z"/>
	<rect x="786" y="521.1" transform="matrix(0.9002 -0.4355 0.4355 0.9002 -145.6236 406.6871)" fill="#545858" width="57" height="0"/>
	<path fill="#545858" d="M737.4,470.9l50.8-24.8c0,0,0-104.5,0-104.5c0,0-11.8,2.9-16.5,5.2l-50.4,24.9c1.3-0.6,3.3-1.2,5.1-1.8
	c3.6-1.3,8-2.4,11.1-3L737.4,470.9z"/>
	<path fill="#2D2D2D" d="M737.2,1411c0,35.7,23.1,76.2,51.6,90.4c13.4,6.7,25.7,6.4,34.8,0.5l49.5-23.8
	c12.1-5.8,20.1-20.3,20.1-41v-95h-156V1411z"/>
	<path fill="#545858" d="M893.2,1402.7l-54,20.2v39.8c0,2.1,0.2,4.1,0,6.1c-0.1,1-0.1,2-0.2,3c-0.1,0.8-0.1,1.5-0.2,2.2
	c-1.4,9.7-4.5,17.4-9.3,22.9c-0.7,0.8-1.4,1.6-2,2.2c0,0,0,0,0,0.1c-2.1,2-3.6,2.8-3.6,2.8l0,0l49.4-23.8c12.1-5.8,20-20.3,20-41
	v-95V1402.7z"/>
</svg>
